<?xml version="1.0" encoding="UTF-8"?>
<svg id="Layer_1" data-name="Layer 1" xmlns="http://www.w3.org/2000/svg" viewBox="0 0 42.5 57.51">
    <g>
      <path fill="#374151"  d="M8.22,25.95c-.43-1.12-1.35-1.94-2.27-2.78-1.36-1.24-2.7-2.51-3.94-3.86C.08,17.21-.3,14.65,.2,11.97c.57-3.03,2.65-4.74,5.52-5.45,1.2-.3,2.02-.76,2.77-1.8,1.81-2.52,4.65-3.18,7.69-2.05,.42,.16,.83,.34,1.28,.53C18.03,1.22,19.25-.03,21.39,0c2.02,.03,3.2,1.24,3.72,3.07,.99-.28,1.94-.66,2.92-.81,2.93-.45,5.07,.82,6.58,3.26,.27,.44,.55,.67,1.08,.74,.69,.1,1.39,.29,2.04,.54,3.39,1.29,5.06,4.21,4.73,7.82-.2,2.19-1.15,3.93-2.6,5.44-1.02,1.07-2.16,2.01-3.21,3.05-.8,.79-1.57,1.63-2.3,2.49-.17,.2-.11,.6-.14,.91-.01,.17,.03,.34,.03,.51,0,2.1,0,4.2,0,6.3,0,.92-.32,1.16-1.2,.89-5.47-1.66-11.05-2.2-16.72-1.47-2.39,.31-4.74,.93-7.1,1.46-1.01,.23-1.26,.09-1.27-.93,0-2.06-.01-4.12,.01-6.18,0-.39,.16-.78,.25-1.17Zm24.54-.22c.78-1.61,2.02-2.74,3.29-3.88,1.29-1.15,2.49-2.41,3.65-3.7,.74-.81,1.16-1.81,1.34-2.94,.52-3.27-.55-5.71-3.21-6.94-.82-.38-1.74-.62-2.64-.76-.73-.11-1.17-.36-1.53-1.03-1.54-2.8-3.96-3.68-6.96-2.55-.64,.24-1.21,.63-1.84,.9-.25,.1-.61,.15-.82,.04-.17-.09-.29-.47-.26-.7,.19-1.29-.53-2.46-1.79-2.81-1.24-.35-2.6,.31-3.03,1.53-.14,.41-.08,.89-.16,1.32-.05,.25-.13,.61-.3,.7-.21,.1-.57,.03-.81-.08-.59-.25-1.13-.61-1.72-.85-3.04-1.23-5.57-.35-7.12,2.52-.35,.65-.78,.9-1.48,.99-1.74,.21-3.3,.84-4.58,2.11-1.89,1.87-1.78,6.08-.5,7.77,1.01,1.32,2.12,2.58,3.32,3.73,1.48,1.42,3.21,2.58,4.1,4.54,1.06-.26,2.07-.51,3.14-.77-.24-.39-.41-.71-.62-1.01-.82-1.17-1.89-2.02-3.22-2.56-.24-.1-.47-.37-.56-.62-.05-.14,.13-.49,.29-.56,.22-.1,.55-.09,.78,0,1.99,.76,3.43,2.14,4.42,4.01,.1,.19,.3,.47,.44,.46,.97-.08,1.93-.23,2.95-.36-1.32-3.74-3.19-6.9-6.88-8.6-.41-.19-.64-.48-.45-.92,.21-.47,.6-.47,1.03-.27,1.45,.65,2.7,1.57,3.78,2.73,1.72,1.85,2.87,4.03,3.68,6.42,.07,.21,.27,.51,.43,.52,.64,.06,1.3,.02,2.01,.02-.42-1.8-1.29-3.1-2.7-4.02-.39-.25-.74-.54-.42-1.03,.33-.52,.76-.32,1.17-.05,1.4,.91,2.35,2.17,2.93,3.72,.08,.2,.15,.41,.27,.75,.13-.37,.19-.57,.27-.77,.6-1.59,1.59-2.88,3.05-3.78,.39-.24,.78-.31,1.06,.14,.26,.43,0,.7-.33,.97-.52,.41-1.05,.82-1.49,1.31-.69,.77-1.09,1.7-1.3,2.78,.78,.06,1.48,.11,2.08,.15,.63-1.41,1.15-2.8,1.85-4.09,1.37-2.53,3.27-4.55,5.93-5.76,.43-.19,.82-.21,1.04,.26,.21,.47-.06,.76-.49,.95-1.75,.78-3.14,2-4.27,3.52-1.18,1.59-2.03,3.35-2.59,5.3,.94,.18,1.82,.36,2.71,.49,.14,.02,.36-.2,.48-.36,.66-.92,1.17-1.98,1.97-2.74,.78-.75,1.84-1.22,2.79-1.78,.41-.24,.77-.08,.94,.36,.16,.42-.08,.69-.46,.85-.16,.07-.32,.13-.47,.2-1.72,.78-2.88,2.09-3.63,3.84,.33,.1,.62,.18,.91,.26,.16,.04,.33,.07,.56,.12Zm-23.48,3.72c7.89-2.2,15.73-2.21,23.65,0,0-.57-.04-1.04,.01-1.5,.07-.6-.15-.85-.74-1.01-4.7-1.28-9.46-1.78-14.32-1.4-2.76,.22-5.48,.69-8.13,1.51-.19,.06-.44,.29-.45,.46-.05,.61-.02,1.24-.02,1.95Zm23.65,3.35c0-.5-.04-.89,0-1.26,.07-.56-.17-.76-.69-.91-5.61-1.57-11.31-1.94-17.06-1.1-1.98,.29-3.93,.79-5.9,1.19,0,.64,0,1.13,0,1.62,0,.13,.02,.25,.04,.44,7.85-2.2,15.67-2.22,23.61,.02Z"/>
      <path fill="#374151"  d="M35.06,38.76c.99-.13,1.91-.35,2.83-.35,1.54-.01,2.23,.78,2.14,2.3-.09,1.49-.54,2.86-1.41,4.08-1.08,1.52-2.53,2.26-4.43,2.01-.2-.03-.5,.11-.62,.27-.87,1.15-1.95,2.03-3.22,2.71-.35,.19-.68,.46-.95,.75-1.72,1.86-3.42,3.73-5.13,5.59-1.72,1.87-4.68,1.86-6.4,0-1.79-1.93-3.57-3.88-5.37-5.81-.26-.28-.56-.53-.89-.73-1.1-.66-2.03-1.5-2.82-2.51-.12-.16-.42-.28-.62-.26-1.66,.22-3-.38-4.05-1.62-1.19-1.39-1.69-3.06-1.75-4.87-.04-1.13,.68-1.88,1.96-1.91,.94-.02,1.89,.18,2.92,.28,.28-.34,.71-.81,1.07-1.33,.12-.18,.08-.48,.06-.73-.03-.49,0-.96,.61-1,.57-.04,.69,.39,.71,.86,.02,.32,.11,.64,.1,.96,0,.21-.08,.52-.23,.62-1.55,1.1-1.69,2.68-1.4,4.32,.45,2.59,1.78,4.65,4.08,6.02,.43,.26,.84,.6,1.19,.97,1.79,1.91,3.55,3.84,5.33,5.76,1.29,1.4,3.31,1.39,4.59,0,1.59-1.74,3.16-3.5,4.79-5.21,.57-.59,1.25-1.09,1.95-1.53,2.74-1.77,4.19-4.23,4.13-7.51-.02-1.15-.47-2.16-1.52-2.82-.2-.13-.36-.48-.37-.74-.02-.55,.07-1.11,.11-1.66,.04-.44,.23-.77,.71-.74,.49,.02,.63,.38,.61,.82,0,.11,0,.22-.01,.32-.09,.66-.06,1.23,.57,1.69,.35,.26,.55,.74,.73,1Zm-.31,6.75c.98,.06,1.91-.29,2.5-1.13,.54-.78,.96-1.66,1.25-2.56,.19-.58,.34-1.5,.03-1.86-.49-.57-1.4-.3-2.13-.11-.61,.16-1.06,.44-.85,1.21,.06,.22,.04,.48,0,.7-.25,1.23-.52,2.45-.8,3.75Zm-26.95,0c-.75-1.67-1.23-3.29-.99-5.05,.02-.11-.13-.31-.25-.37-.77-.39-1.58-.54-2.42-.28-.19,.06-.44,.38-.43,.57,.06,1.49,.47,2.87,1.46,4.01,.66,.77,1.49,1.18,2.63,1.12Z"/>
      <path fill="#374151"  d="M24.89,47.27c-1.81,.1-1.76-.49-1.35-1.86,.57-1.92,1.79-3.41,3.37-4.57,1.15-.84,2.42-1.52,3.68-2.2,.91-.48,1.86-.03,2.21,.95,.05,.14,.09,.29,.12,.43,.33,1.72-.92,4.62-2.39,5.58-1.66,1.08-3.61,1.65-5.64,1.66Zm-.23-1.48c.07,.07,.13,.14,.2,.21,.69-.09,1.41-.11,2.08-.3,3.53-.98,4.07-1.84,4.66-4.69,.05-.26,.04-.55,0-.82-.05-.33-.22-.48-.59-.31-1.9,.89-3.67,1.96-4.97,3.64-.54,.69-.92,1.51-1.37,2.26Z"/>
      <path fill="#374151"  d="M17.43,47.27c-1.92-.04-3.7-.55-5.38-1.51-1.6-.92-2.15-2.45-2.49-4.08-.14-.67-.13-1.42,.03-2.08,.23-.93,1.19-1.39,2.03-1.02,2.4,1.06,4.62,2.42,6.1,4.65,.56,.84,.92,1.83,1.23,2.79,.3,.94,0,1.24-1.01,1.25-.17,0-.34,0-.51,0Zm.34-1.31c-.5-.86-.85-1.64-1.35-2.31-1.31-1.74-3.11-2.85-5.05-3.76-.48-.23-.63,.09-.62,.42,.02,1.45,.29,2.89,1.41,3.87,1.51,1.31,3.4,1.73,5.61,1.79Z"/>
      <path fill="#374151" d="M21.01,51.98c-.76-.3-1.54-.58-2.29-.92-.43-.19-.62-.56-.36-1,.25-.41,.63-.38,1.01-.14,1.21,.79,2.41,.78,3.61,0,.38-.25,.75-.26,1,.15,.26,.41,.07,.73-.31,.97-.79,.51-1.65,.81-2.61,.78-.02,.05-.04,.1-.06,.16Z"/>
    </g>
</svg>